<?xml version="1.0" standalone="no"?>
<!DOCTYPE svg PUBLIC "-//W3C//DTD SVG 20010904//EN"
 "http://www.w3.org/TR/2001/REC-SVG-20010904/DTD/svg10.dtd">
<svg version="1.0" xmlns="http://www.w3.org/2000/svg"
 width="310.000000pt" height="310.000000pt" viewBox="0 0 310.000000 310.000000"
 preserveAspectRatio="xMidYMid meet">
<metadata>
Created by potrace 1.11, written by Peter Selinger 2001-2013
</metadata>
<g transform="translate(0.000000,310.000000) scale(0.100000,-0.100000)"
fill="#000000" stroke="none">
<path d="M533 3058 c-21 -23 -21 -31 -22 -554 0 -292 -1 -535 -2 -540 -1 -5
-1 -11 0 -14 1 -3 2 -423 2 -933 1 -874 2 -929 19 -950 30 -36 86 -28 167 25
37 24 103 66 146 94 43 27 112 70 154 96 41 27 79 48 84 48 5 0 9 4 9 8 0 4
15 16 33 27 17 10 69 42 114 72 46 29 87 53 92 53 5 0 11 4 13 8 2 6 158 108
403 262 130 82 938 599 1026 657 117 77 139 115 105 182 -12 23 -70 71 -111
91 -5 3 -57 36 -115 74 -359 234 -504 326 -513 326 -4 0 -5 6 -1 13 4 6 4 9 0
5 -7 -6 -55 23 -286 173 -41 27 -151 98 -245 158 -93 60 -228 148 -300 194
-71 46 -175 113 -230 149 -55 35 -173 111 -262 168 -89 58 -173 111 -185 117
-35 19 -72 15 -95 -9z"/>
</g>
</svg>
